<svg xmlns="http://www.w3.org/2000/svg" viewBox="0 0 1200 1200">
  <circle cx="600" cy="600" r="580" fill="#ffad00"/>
  <g fill="#05164D" stroke="#05164D" stroke-width=".6" transform="translate(53, 53)">
    <path d="M956.5 354.6c-13 1.3-18.5 2.3-28 5.1-10 3-28.6 9.5-31.3 10.9-1.5.7-3 1.4-3.4 1.4-.5 0-4.1 1.5-8 3.4-8.7 4-19.9 9.2-24.8 11.3-1.9.9-13.2 6.3-25 12-43.7 21.4-74.7 36.5-80.8 39.6-3.4 1.7-8.6 5.2-11.4 7.7-5.6 5-5.8 5.7-4.3 16.5.5 3.7.1 6.5-1.4 11-2 6-2 6-2-2.2-.1-5.6-.7-9.9-2.1-13.5-2.1-5.8-7.4-12.8-9.5-12.8-.7 0-1.5-.5-1.7-1.1s-3.1-1.3-6.6-1.6c-9.8-.9-22.8 4.2-37.7 14.9-.5.4-3.1 2.6-5.7 4.9-3.5 3-5.3 3.9-6.5 3.4-4.3-1.8-24.7-5.8-48.3-9.5-3-.4-10-1.5-15.5-2.4-5.5-.8-14.5-2.2-20-3.1s-12.7-2-16-2.5-10.5-1.6-16-2.5-13.1-2-17-2.5c-3.8-.5-8-1.2-9.3-1.5s-5.6-1-9.5-1.6c-4-.6-11-1.7-15.7-2.4s-13.2-2-19-2.8c-5.8-.9-13.9-2.2-18-3.1-4.1-.8-9.7-1.8-12.5-2.1-2.7-.3-7-1-9.5-1.5s-8.5-1.6-13.5-2.4c-4.9-.8-10.3-1.8-12-2.1-1.6-.3-6.8-1.2-11.5-2s-10.7-1.9-13.5-2.5c-2.7-.5-8.9-1.6-13.7-2.5-19.1-3.3-26.5-4.6-31.8-5.6-11-2.1-18-2.2-20.1-.3-3.9 3.5-1.2 7.8 5.8 9.5 2.1.5 6.7 1.6 10.3 2.5 8.9 2.1 16.8 4.1 21 5.3 7.1 2 15.6 4.2 20 5.2 2.5.6 5.4 1.4 6.5 1.8 1.1.5 3.8 1.4 6 1.9 2.2.6 6.5 1.8 9.5 2.6 3 .9 10.5 3 16.5 4.6 6.1 1.7 11.8 3.5 12.7 4.1 1 .5 2.4.9 3.2.9 1.7 0 11.5 2.9 13.8 4.1 1 .5 2.4.9 3.1.9 1.8 0 20.7 5.8 22.9 7 1 .6 2.4 1 3.3 1 .8 0 4.7 1.1 8.7 2.4s10.7 3.4 14.8 4.6c8 2.3 12.3 3.7 15.5 5 1.1.5 5.4 1.8 9.5 3s8.4 2.5 9.5 3 4.3 1.6 7 2.5c21.4 6.8 59.2 22.6 58.1 24.4-.3.4-3.6 1.8-7.3 3-16.1 5.4-37.8 16.4-61.2 31.3-1.4.9-3.1 1.7-3.7 1.7-.5.1-13.8-12.6-29.5-28.2-31.2-31.1-45.8-44.5-51.5-47.2-4.4-2.1-12-1.6-17.1 1-5 2.5-5 .8-.3 27.5.5 3 1.2 8 1.5 11s1 7.1 1.5 9 1.4 7.1 2 11.5 1.6 10.7 2.2 14c1.3 7.9 3.7 23.9 4.5 29.4.5 4 .4 4.3-1.3 3.7-1.1-.4-6.6-1.4-12.4-2.1-10.9-1.5-28.1-3.9-38.5-5.6-3.3-.5-10.9-1.6-17-2.5-6-.8-13.2-1.9-16-2.4-19.7-3.3-23.4-3.5-27-1.5-6.2 3.3-3.3 9.6 5 10.8 2.2.4 6.7 1.3 10 2.1 3.3.7 9.4 2.2 13.5 3.1s9.1 2.1 11 2.5c1.9.5 6.7 1.5 10.5 2.3 3.9.9 12.2 2.7 18.5 4.2l18 4c14.2 3 15.9 3.6 15.3 5.1-.3.8-.9 1.4-1.4 1.4s-.9.5-.9 1.1-1.1 2.5-2.5 4.3c-3.4 4.5-3.4 9.8 0 12.4 3.4 2.7 12.1 3.5 41 3.7 24.6.1 28.3.6 40 5.5 3.3 1.3 7.6 2.7 15.5 5 12.2 3.5 14.4 4.2 16.8 5.1 6.3 2.4 22.2-.2 22.2-3.6 0-2.5-3.9-8.6-8.5-13.4-5.5-5.8-5.5-5.8.7-7.1 5.7-1.2 16.2-3.8 24.3-6 9.1-2.5 11.2-3.2 13-4 1.1-.5 3.6-1.3 5.5-1.9 5.1-1.4 17-5.8 17.7-6.5.4-.3 1.3-.6 2.1-.6s3-.7 5-1.6c2.1-.9 4.6-2 5.7-2.4 1.1-.5 4-1.7 6.5-2.8 7.5-3.1 10.3-4 15-4.6 14.8-1.9 32.1-5.1 41-7.5 1.9-.5 6-1.6 9-2.4 10.8-2.9 22.3-6.7 33.3-11.1 11.2-4.4 11.2-4.4 26.7-4.9 9.7-.3 16.5-.9 18.3-1.7 2-1 3.3-1.1 5-.2 1.2.6 4.7 1.5 7.7 2.1 5.7 1 16.6 3.4 23.5 5.2 2.2.5 6.9 1.6 10.5 2.4 19.2 4.1 17 3.2 22.3 9.1 7.6 8.6 17 11 29.9 7.7 6.8-1.7 6.8-1.7 15 .9 13 4.3 30.3 9.1 38.8 11 2.5.5 5.2 1.2 6 1.5.8.4 4 1.2 7 1.9s7.5 1.8 10 2.4c14.5 3.7 23.8 3.7 28.2-.1 2.3-1.9 2.3-1.9-1.4-5.2-2-1.7-5.3-4.1-7.5-5.2-2.1-1.1-4-2.2-4.3-2.5s-3.4-2-7-3.9c-18.2-9.4-27-14.4-27-15.1 0-.3 2.2-2.8 4.9-5.7 10.2-11.1 12.8-21.9 7.6-32-5.4-10.3-16.9-13.6-31.5-9.1-15.2 4.8-24 9.2-30.7 15.5-4.7 4.3-4.7 4.3-7.3 1.6-3.3-3.6-7.3-6.6-18.7-13.7-10.3-6.4-10.2-6.4-7-9.4 1.8-1.7 30.7-16.2 32.3-16.2 3.4 0 72.7-36.3 85.9-44.9 3.9-2.5 7.5-4.8 8-5.1 6.7-3.3 26.7-19.1 35.3-28 21-21.5 23.5-35.9 7.8-44.7-8.6-4.7-27.4-3.9-45.6 2-1.9.6-3.9 1.5-4.4 1.9-.6.4-1.7.8-2.6.8-.8 0-3.2.9-5.3 2-4.6 2.5-4.7 2.5-4.7-.3 0-3.4 4.5-7.1 14.1-11.8.9-.4 4.5-1.1 8-1.4 14.7-1.5 18.5-7.6 6.3-10.2-7.2-1.5-14-1.4-30.9.3z"/>
    <path d="M285 449.6c-12.4 7.4-23.4 14-24.5 14.5s-2.9 1.5-4 2.2-6.5 3.9-12 7.1-11.2 6.7-12.7 7.7c-1.5 1.1-3 1.9-3.3 1.9s-4.1 2.2-8.5 5c-4.4 2.7-8.2 5-8.5 5s-10.9 6.2-20.5 12c-9.2 5.5-24.6 14.6-25.4 14.9-.6.2-7.5 4.4-15.3 9.3-7.8 4.8-14.5 8.8-14.8 8.8s-4.5 2.4-9.3 5.3c-4.8 3-11.4 6.9-14.7 8.7-9.5 5.3-11.7 6.5-17.1 9.8-2.8 1.8-5.5 3.2-5.9 3.2-.5 0-2.3 1.1-4.1 2.5s-3.5 2.5-3.8 2.5c-.4 0-4.6 2.5-9.5 5.5S62 581 61.7 581c-.6 0-27.7 16.7-28.6 17.6-.2.2-.2.6.1.9.5.5 11.5-4.9 21.3-10.5 2.2-1.3 5.9-3.4 8.3-4.7s6.7-3.6 9.5-5.2c2.9-1.6 13.3-7 23.2-12.1 24.1-12.4 40.2-20.8 50.5-26.2 8.4-4.5 19-10 48.5-25.3 8.3-4.3 19.5-10.1 25-13s15.2-8 21.5-11.3c6.3-3.2 16-8.3 21.5-11.2s14.1-7.4 19-10c24.8-13.1 31.4-16.6 36-19.2 2.8-1.6 5.8-3.2 6.8-3.5 3.9-1.2 1.6-3.8-6.7-7.6-4.6-2-8.7-3.7-9.2-3.7s-11 6.1-23.4 13.6zM306 579c-.8.4-3.8 2-6.6 3.4-2.8 1.3-7.5 3.8-10.5 5.4s-7 3.8-8.9 4.8c-1.9 1.1-3.7 2.2-4 2.5s-2 1.4-3.7 2.3c-1.8.9-10.9 6.3-20.2 12s-18.8 11.5-21.2 12.9c-2.4 1.3-12.6 7.4-22.7 13.6-10.1 6.1-18.5 11.1-18.7 11.1s-4 2.2-8.4 5c-4.4 2.7-8.3 5-8.6 5-.2 0-9.6 5.6-20.7 12.5-11.2 6.9-21.2 13.1-22.3 13.8s-3.3 2.1-5 3.2c-3.7 2.5-6.6 4.2-8.5 5.1-.8.4-2.8 1.7-4.5 2.8-3.4 2.4-5.7 3.8-10.2 6.1-1.8.9-3.7 2.3-4.4 3.1-.6.8-1.5 1.4-2 1.4-.8 0-21.1 12.2-23.6 14.2-.7.6-1 1.5-.7 2 .4.6.9.6 1.3.2.3-.5 3.1-2.1 6.1-3.6s7.8-4.1 10.5-5.6c15.1-8.5 43.1-23.3 77.5-41 11.3-5.7 26.1-13.4 33-17s19-9.8 27-13.9c13.2-6.8 19.5-10.2 34.5-18.3 2.8-1.5 12-6.4 20.5-10.8 8.5-4.5 19.3-10.2 24-12.6 4.7-2.5 11.5-6.1 15.2-7.8 8.2-4 8.3-4.6 1-7.7-3.1-1.3-7-3-8.6-3.7-3.3-1.6-4.5-1.6-6.6-.4zm193 69.1c-.8.5-4.6 2.3-8.5 4-8.3 3.7-20.8 9.6-32 14.9-8.8 4.2-22 10.4-33.5 15.7-4.1 1.9-10.2 4.8-13.5 6.3-10.8 5.2-23.7 11.1-37 16.9-15.6 6.9-20.7 9.4-36.5 17.6-2.5 1.3-10.8 5.4-18.5 9.1s-23.4 11.3-35 16.9c-11.5 5.7-23.2 11.3-26 12.5-2.7 1.2-9.7 4.5-15.5 7.2-14.6 6.9-25.8 12.1-36.5 16.8-5.8 2.6-16.1 7.3-26 12-12.7 6.1-1 3.8 13-2.5 12-5.4 15.6-6.9 20-8.7 2.8-1 6.4-2.6 8.2-3.4s9-3.7 16-6.5c7-2.7 13.7-5.4 14.8-5.8 1.1-.5 6.7-2.8 12.5-5.2 5.8-2.3 12.3-5 14.5-6 2.2-.9 9.6-4 16.5-6.9 6.9-2.8 14.5-6 16.9-7.1s6.7-2.9 9.5-4 7-2.9 9.3-3.9c2.4-1.1 4.6-2 4.9-2s2-.6 3.7-1.4c1.8-.8 11.1-4.7 20.7-8.6s18.4-7.5 19.5-8 5.6-2.3 10-4 9.4-3.7 11.2-4.5c1.7-.8 3.4-1.5 3.7-1.5s2.5-.9 4.9-1.9c2.3-1.1 7.8-3.4 12.2-5.2 4.4-1.7 8.4-3.6 9-4 .5-.5 1.5-.9 2.3-.9s2.8-.7 4.5-1.5c1.8-.8 6.8-2.8 11.2-4.5s8.9-3.5 10-4 10.8-4.3 21.5-8.6c10.7-4.2 21.4-8.5 23.7-9.5 2.3-1.1 4.9-1.9 5.7-1.9s1.7-.4 2-.9 1.8-1.2 3.3-1.6c1.5-.3 4.5-1.5 6.7-2.6 2.2-1 4.6-1.9 5.4-1.9 1.7 0 1.1-2.1-.9-3.1-14.2-7.7-23.9-10.4-27.9-7.8z"/>
  </g>
</svg>
